<?xml version="1.0" standalone="no"?>
<!DOCTYPE svg PUBLIC "-//W3C//DTD SVG 20010904//EN"
 "http://www.w3.org/TR/2001/REC-SVG-20010904/DTD/svg10.dtd">
<svg version="1.0" xmlns="http://www.w3.org/2000/svg"
 width="1280.000000pt" height="1280.000000pt" viewBox="0 0 1280.000000 1280.000000"
 preserveAspectRatio="xMidYMid meet">
<metadata>
Created by potrace 1.15, written by Peter Selinger 2001-2017
</metadata>
<g transform="translate(0.000000,1280.000000) scale(0.100000,-0.100000)"
fill="#000000" stroke="none">
<path d="M5195 12449 c-57 -58 -62 -60 -100 -55 -25 4 -46 1 -57 -8 -31 -24
-118 -239 -118 -294 0 -52 -10 -70 -43 -76 -35 -7 -103 -74 -129 -126 -9 -19
-29 -62 -43 -95 -33 -77 -102 -183 -123 -190 -10 -3 -46 -46 -82 -95 -46 -62
-76 -94 -102 -106 -20 -9 -47 -27 -59 -40 -19 -21 -21 -31 -16 -86 3 -35 9
-71 12 -80 5 -12 -9 -33 -48 -72 -33 -32 -60 -69 -65 -89 -5 -19 -79 -138
-165 -264 -85 -126 -158 -243 -161 -260 -5 -20 -2 -42 7 -60 15 -29 135 -148
237 -236 l56 -47 -4 -148 c-1 -81 -4 -188 -5 -238 l-2 -91 -37 -35 c-37 -35
-38 -37 -38 -109 0 -63 -3 -76 -20 -87 -32 -20 -24 -46 34 -103 l53 -54 -7
-75 c-10 -113 12 -138 84 -95 37 22 55 25 137 25 94 0 94 0 178 -47 86 -49
137 -94 229 -200 49 -58 52 -65 52 -115 0 -32 -9 -71 -21 -98 -52 -115 -71
-279 -48 -419 12 -80 13 -79 -124 -146 l-102 -50 -3 -43 c-2 -30 3 -54 18 -79
34 -58 30 -160 -9 -254 -27 -63 -37 -77 -74 -98 -76 -44 -119 -85 -149 -145
-17 -33 -41 -77 -55 -98 -25 -37 -28 -76 -10 -153 3 -11 8 -40 12 -65 4 -25
20 -70 35 -100 37 -74 84 -113 162 -139 55 -18 88 -89 88 -191 l0 -76 -77
-129 c-50 -82 -88 -134 -106 -144 -27 -15 -28 -18 -24 -81 2 -36 12 -87 22
-114 17 -45 17 -61 6 -210 -20 -247 -19 -251 58 -243 25 2 55 7 66 11 16 6 26
-2 48 -36 15 -24 34 -64 42 -90 12 -42 12 -55 -1 -104 -22 -86 -42 -113 -94
-128 -44 -13 -45 -12 -71 15 -49 53 -95 35 -139 -51 -34 -67 -39 -128 -14
-175 l15 -30 -67 -61 -68 -61 -7 -114 c-4 -71 -16 -153 -33 -217 -39 -152 -50
-173 -101 -205 -37 -24 -45 -34 -45 -58 0 -34 83 -237 111 -273 33 -42 78
-148 92 -216 13 -64 13 -65 48 -68 34 -3 36 -1 59 52 32 77 64 85 95 26 21
-40 10 -90 -20 -90 -31 0 -53 -28 -61 -78 -8 -52 7 -85 51 -112 21 -13 36 -34
45 -62 8 -24 31 -78 52 -121 l38 -77 -15 -101 c-13 -92 -38 -159 -57 -159 -4
0 -8 10 -8 23 0 50 -66 139 -205 277 -119 119 -145 140 -170 140 -17 0 -36 -5
-43 -12 -18 -18 -14 -124 7 -198 31 -108 216 -472 281 -554 81 -101 195 -207
265 -246 86 -48 169 -105 250 -170 108 -88 173 -127 264 -160 147 -54 189 -77
196 -110 9 -43 107 -125 202 -169 24 -11 55 -30 71 -41 17 -13 51 -23 85 -27
l56 -6 47 -81 c25 -44 61 -99 79 -121 55 -69 57 -77 50 -189 l-7 -103 63 -67
c34 -37 79 -76 98 -87 54 -28 88 -61 95 -92 8 -32 -5 -131 -40 -320 -51 -272
-18 -388 95 -331 24 12 62 19 113 20 77 3 78 3 106 -31 23 -29 44 -39 127 -64
181 -53 232 -63 254 -51 27 14 41 41 41 80 l0 31 38 -22 c63 -36 92 -8 92 90
0 48 0 48 45 65 24 10 67 38 95 63 62 56 67 93 20 138 -47 45 -90 118 -90 153
0 30 2 32 38 32 21 0 48 -8 61 -17 24 -16 104 -40 169 -50 28 -5 39 0 69 28
41 40 73 98 73 132 0 14 -61 142 -135 285 -74 143 -135 265 -135 270 0 7 14 9
34 5 48 -8 105 14 117 44 5 13 21 70 35 126 32 128 46 156 89 186 34 23 37 23
115 10 77 -12 83 -12 126 9 l45 22 49 -25 c60 -30 122 -32 182 -6 53 23 230
137 239 154 9 16 29 147 29 188 0 18 -7 41 -17 51 -19 22 -11 47 35 99 60 69
122 170 122 199 0 16 -11 42 -25 58 -36 43 -43 69 -32 124 8 41 16 54 46 72
69 44 140 117 165 169 21 44 26 73 32 182 6 116 9 133 29 155 13 14 39 58 59
97 l36 73 73 -6 72 -6 85 52 c47 28 107 63 134 77 64 32 102 76 122 138 20 60
31 75 54 75 9 0 29 9 44 21 22 17 26 29 26 68 0 27 7 68 15 91 11 31 15 85 15
192 l0 150 -58 67 c-83 94 -137 163 -149 186 -18 34 -25 102 -14 140 12 43
-10 346 -33 469 -23 119 -41 130 -152 101 -66 -17 -73 -15 -136 54 -60 64 -79
65 -121 4 -17 -26 -54 -72 -82 -101 -46 -49 -52 -53 -83 -47 -19 3 -54 16 -78
27 l-43 22 -26 110 c-14 61 -36 156 -50 211 -13 55 -36 152 -51 215 -15 63
-32 133 -38 155 l-11 40 -111 -3 -111 -4 -22 30 c-14 21 -21 45 -21 77 0 72
-19 122 -68 177 -41 45 -44 51 -32 72 20 38 9 59 -35 72 -27 7 -41 17 -43 30
-1 10 -10 42 -19 71 -15 46 -15 61 -4 133 13 75 12 82 -5 101 -16 18 -27 20
-66 16 l-46 -6 8 32 c7 26 16 88 19 128 1 4 20 4 44 2 33 -4 48 0 70 17 30 24
72 101 107 198 27 74 19 106 -30 124 -17 5 -30 15 -30 22 0 7 -16 28 -36 47
-19 18 -49 59 -66 89 -17 30 -49 79 -71 109 -74 100 -86 128 -75 172 9 35 14
39 41 39 48 0 110 36 167 96 l52 55 -4 63 c-2 41 -11 73 -23 91 -44 62 -75
147 -63 169 5 9 19 49 30 89 18 59 21 97 20 209 -2 156 4 178 67 250 46 52 51
81 19 115 l-22 23 18 78 c10 42 20 87 22 98 8 46 67 186 89 212 72 86 75 96
75 227 0 173 -22 239 -128 380 l-45 59 11 94 11 94 -70 196 c-38 108 -69 197
-69 198 0 1 -76 66 -169 143 -117 97 -185 163 -220 210 -79 106 -109 119 -172
77 l-36 -25 -48 26 c-41 21 -57 24 -99 20 -28 -4 -60 -9 -71 -12 -18 -5 -23 2
-39 49 -13 38 -16 59 -9 68 38 49 18 128 -43 171 -35 25 -41 33 -29 40 19 10
20 71 1 86 -20 16 -31 83 -27 159 3 64 -8 92 -36 92 -9 0 -42 25 -74 55 -48
44 -73 58 -129 75 -60 18 -74 27 -95 58 -13 20 -29 52 -36 70 -15 45 -44 49
-123 18 -35 -14 -68 -26 -73 -26 -12 0 -75 -67 -96 -102 -17 -27 -19 -28 -115
-28 -101 0 -164 -19 -185 -55 -4 -8 -18 -15 -31 -15 -12 0 -46 -18 -76 -40
-62 -47 -86 -56 -104 -40 -8 6 -42 24 -76 41 -72 35 -82 52 -105 185 -8 47
-15 90 -15 94 0 5 20 20 45 34 27 16 45 34 45 45 0 29 -21 84 -41 107 -11 11
-19 34 -19 50 0 20 -18 53 -56 104 -57 76 -71 90 -89 90 -6 0 -37 -27 -70 -61z"/>
</g>
</svg>
